<svg width="445" height="345" viewBox="0 0 445 345" fill="none" xmlns="http://www.w3.org/2000/svg">
<g clip-path="url(#clip0_5168_4005)">
<path d="M443.547 342.081H1.50069C0.728575 342.081 0.0523305 342.667 0.00310192 343.443C-0.0513086 344.292 0.617163 344.997 1.45146 344.997H443.547C444.348 344.997 444.998 344.344 444.998 343.539C445.001 342.735 444.35 342.081 443.547 342.081Z" fill="#4982F2"/>
<path d="M332.199 143.819C332.023 143.619 331.749 143.535 331.492 143.606C330.233 143.947 327.953 143.436 326.826 143.041L325.598 136.932C326.484 136.128 328.388 134.768 329.681 134.594C329.945 134.557 330.166 134.375 330.251 134.123L331.806 129.48C331.891 129.227 331.824 128.946 331.635 128.759C330.71 127.834 330.01 125.595 329.787 124.416L334.438 120.294C335.573 120.663 337.697 121.64 338.496 122.676C338.659 122.887 338.926 122.989 339.187 122.937L343.965 121.968C344.227 121.916 344.434 121.718 344.501 121.46C344.836 120.195 346.416 118.466 347.32 117.682L353.197 119.669C353.448 120.843 353.666 123.179 353.171 124.392C353.07 124.64 353.116 124.923 353.293 125.124L356.516 128.798C356.692 128.998 356.967 129.082 357.223 129.011C358.482 128.67 360.762 129.181 361.889 129.576L363.118 135.685C362.231 136.489 360.327 137.849 359.034 138.023C358.77 138.06 358.55 138.242 358.464 138.494L356.91 143.137C356.824 143.39 356.891 143.671 357.078 143.858C358.003 144.783 358.703 147.022 358.925 148.201L354.275 152.323C353.14 151.954 351.015 150.977 350.217 149.941C350.054 149.73 349.787 149.628 349.525 149.68L344.748 150.649C344.486 150.701 344.279 150.899 344.211 151.157C343.877 152.422 342.296 154.154 341.392 154.935L335.516 152.948C335.265 151.774 335.047 149.438 335.542 148.225C335.643 147.977 335.596 147.694 335.42 147.493L332.199 143.819ZM345.569 142.319C348.875 141.648 351.013 138.411 350.347 135.089C349.678 131.766 346.458 129.618 343.152 130.287C339.845 130.959 337.708 134.196 338.374 137.518C339.042 140.84 342.263 142.991 345.569 142.319ZM346.344 146.178C351.769 145.077 355.28 139.765 354.184 134.31C353.088 128.858 347.802 125.33 342.374 126.431C336.949 127.532 333.438 132.844 334.534 138.299C335.633 143.752 340.918 147.28 346.344 146.178Z" fill="#FA7167"/>
<path d="M371.675 165.686C371.729 165.48 371.895 165.324 372.1 165.283L375.883 164.514C376.09 164.473 376.302 164.554 376.429 164.72C377.062 165.54 378.743 166.316 379.642 166.608L383.324 163.343C383.148 162.411 382.593 160.635 381.863 159.903C381.712 159.755 381.661 159.531 381.728 159.33L382.959 155.654C383.026 155.453 383.2 155.307 383.409 155.279C384.433 155.141 385.941 154.063 386.643 153.427L385.671 148.592C384.778 148.28 382.974 147.873 381.977 148.144C381.775 148.199 381.557 148.134 381.417 147.975L378.865 145.067C378.725 144.908 378.689 144.684 378.769 144.489C379.16 143.528 378.987 141.679 378.79 140.749L374.136 139.177C373.419 139.796 372.17 141.166 371.903 142.169C371.849 142.374 371.683 142.53 371.478 142.572L367.695 143.34C367.488 143.382 367.275 143.301 367.149 143.135C366.516 142.314 364.835 141.538 363.936 141.247L360.249 144.512C360.425 145.444 360.979 147.217 361.71 147.952C361.86 148.1 361.912 148.321 361.845 148.522L360.614 152.198C360.547 152.399 360.37 152.545 360.163 152.573C359.14 152.711 357.632 153.789 356.93 154.425L357.901 159.26C358.793 159.572 360.599 159.979 361.596 159.708C361.798 159.653 362.016 159.718 362.156 159.877L364.708 162.786C364.848 162.944 364.884 163.168 364.804 163.364C364.412 164.324 364.586 166.173 364.783 167.103L369.436 168.675C370.159 168.058 371.408 166.689 371.675 165.686ZM372.978 159.854C369.721 160.515 366.55 158.398 365.892 155.125C365.234 151.852 367.34 148.665 370.597 148.004C373.854 147.342 377.025 149.459 377.683 152.732C378.341 156.005 376.235 159.192 372.978 159.854Z" fill="#FA7167"/>
<path d="M105.642 88.8109L101.437 87.2174L97.7477 89.7952C97.3279 90.0894 96.7553 89.7718 96.7787 89.2562L96.9859 84.7464L93.4078 82.0202C93.001 81.7104 93.1254 81.0646 93.6177 80.9266L97.9498 79.7315L99.4266 75.4664C99.595 74.9795 100.245 74.8988 100.525 75.3284L102.994 79.1013L107.487 79.1951C107.998 79.2055 108.275 79.8018 107.956 80.2027L105.15 83.7283L106.448 88.0506C106.598 88.5454 106.122 88.9932 105.642 88.8109Z" fill="#4982F2"/>
<path d="M112.072 61.8251L109.787 55.6593L103.942 57.4143L101.423 51.4411L95.6297 52.428L93.018 48.2671L90.9219 49.595L94.4145 55.1594L99.9048 54.2246L102.524 60.4399L108.274 58.7136L110.344 64.2988L112.072 61.8251Z" fill="#7C9AF2"/>
<path d="M357.741 90.2118L352 87.0508L348.722 92.2219L342.929 89.3604L339.19 93.9144L334.505 92.4849L333.785 94.8674L340.05 96.7812L343.592 92.4641L349.619 95.4429L352.842 90.355L358.047 93.2192L357.741 90.2118Z" fill="#BED1F9"/>
<path d="M206.389 12.5085L203.93 18.6067L209.423 21.2782L207.267 27.3945L212.203 30.5946L211.335 35.4377L213.773 35.8804L214.936 29.4047L210.257 26.3686L212.501 20.0075L207.098 17.3803L209.324 11.855L206.389 12.5085Z" fill="#4982F2"/>
<path d="M351.167 169.735L349.959 167.345L347.241 167.436L346.075 164.66L343.21 165.657L341.754 162.574L339.002 163.165L337.121 160.431L338.15 159.715L339.559 161.759L342.461 161.137L343.86 164.098L346.775 163.085L348.06 166.149L350.716 166.058L351.835 168.274L353.566 167.85L353.864 169.071L351.167 169.735Z" fill="#FA7167"/>
<path d="M300.908 59.005L299.635 55.206L305.491 52.4772L304.315 46.6916L308.367 43.9289L306.976 41.8667L301.558 45.5641L302.672 51.0451L296.578 53.8859L298.493 59.6013L300.908 59.005Z" fill="#FA7167"/>
<path d="M42.6287 259.228C42.6287 259.228 42.4214 258.212 42.38 257.869C42.3307 257.468 42.2737 256.252 42.2737 256.252C42.2737 256.252 42.2711 252.005 42.5847 252.031C42.8982 252.057 43.3024 252.783 43.393 253.046C43.4837 253.307 43.6159 253.606 43.7091 253.867C43.7998 254.13 44.0693 254.278 44.4035 254.184C44.7352 254.093 44.5978 252.968 44.4709 252.591C44.0796 251.409 42.4059 248.464 42.2426 248.146C42.0483 247.768 43.3956 240.402 43.6573 237.843C44.2092 233.666 44.9865 229.399 45.0487 228.956L52.4511 212.51L47.5101 207.438C47.5101 207.438 39.0376 225.574 38.7189 226.527C38.5661 226.982 38.0323 236.765 38.0349 236.765C38.0738 241.597 38.1204 245.857 38.1049 246.675C38.1049 246.675 37.4079 249.112 36.8716 250.635C36.3352 252.161 36.4544 253.781 36.3689 254.231C36.3559 254.296 35.9803 255.838 36.2394 257.764C36.4622 259.426 37.0141 257.738 37.0141 257.738C37.0141 257.738 37.1566 254.577 37.4027 254.629C37.5944 254.669 37.4131 256.392 37.6411 258.233C37.7007 258.707 37.7577 259.173 37.8173 259.603C37.9701 260.728 38.706 260.946 38.7345 259.743C38.7448 259.319 38.7448 258.611 38.6723 258.108C38.5946 257.564 38.7008 257.038 38.706 256.569C38.7163 255.64 38.7111 254.963 38.75 254.984C38.7992 255.01 38.9314 254.827 39.0091 255.327C39.1024 255.929 39.0169 257.254 39.2242 258.129C39.3408 258.624 39.5221 259.676 39.5221 259.676C39.5221 259.676 40.0015 261.345 40.1025 261.34C40.6518 261.316 40.6518 260.019 40.4031 259.368C40.4601 258.871 40.2372 257.772 40.2372 257.772C40.2372 257.772 40.2891 255.442 40.6207 255.439C40.8927 255.437 41.8436 261.03 42.3929 260.967C42.8386 260.926 42.6287 259.228 42.6287 259.228Z" fill="#FB9390"/>
<path d="M49.4408 222.04C49.4408 222.04 46.3679 221.506 44.7382 220.897C42.5643 220.085 41.1367 219.374 41.1367 219.374C41.1367 219.374 43.523 209.112 46.5 202.881C47.7307 200.306 48.9744 199.064 50.7104 198.765C50.7207 198.762 54.3688 201.178 54.2237 206.998C54.1875 208.36 49.4408 222.04 49.4408 222.04Z" fill="#E8605D"/>
<path d="M58.8906 256.525L62.873 293.343C62.873 293.343 60.9271 301.128 61.1603 303.341C61.3961 305.555 65.4898 334.569 65.4898 334.569L65.3162 336.196L65.3111 341.003H80.5071C80.5071 341.003 77.2814 339.508 72.7705 336.556C72.4362 336.337 71.6693 335.642 71.4802 334.251C70.2754 325.307 72.6591 295.475 72.6591 295.475L74.5375 256.645L58.8906 256.525Z" fill="#FB9390"/>
<path d="M46.6788 264.269C45.8212 264.492 44.4998 296.15 43.7898 297.553C39.2841 306.448 38.2141 333.491 38.2141 333.491L36.9056 337.342L35.5039 342.065C35.5039 342.065 40.0044 343.302 42.3622 341.956L42.1005 337.3L41.8622 333.043L53.2288 299.35L59.4497 264.985L46.6788 264.269Z" fill="#FB9390"/>
<path d="M69.2836 202.947C67.4492 200.353 59.8835 192.844 59.044 192.859C56.593 192.904 48.5506 192.906 46.9805 193.734L46.9908 195.502C47.0323 203.41 48.0376 211.287 50.0171 218.939C51.3981 224.274 52.7039 229.972 52.5433 232.018L52.5822 232.057C57.2355 236.705 64.5732 236.34 68.8302 231.247C68.8302 231.247 68.812 225.576 69.4675 220.403C70.491 212.299 73.8385 209.386 69.2836 202.947Z" fill="#FA7167"/>
<path d="M56.5819 184.808C56.5819 184.808 56.7944 190.083 56.3357 192.083C55.8771 194.083 55.2683 194.234 59.1988 194.843C60.743 195.083 62.2328 195.439 62.2328 195.439C62.2328 195.439 61.8286 192.502 61.769 191.263C61.668 189.221 62.2224 182.915 62.2224 182.915L56.5819 184.808Z" fill="#FB9390"/>
<path d="M59.5733 187.433C60.3817 187.886 61.1383 188.151 61.8352 188.263C61.97 185.771 62.2213 182.915 62.2213 182.915L56.8398 184.722C57.4643 185.8 58.353 186.75 59.5733 187.433Z" fill="#EF7F7F"/>
<path d="M57.8255 170.034C57.8255 170.034 55.5792 170.831 54.3381 173.318C53.097 175.804 52.6358 182.793 57.5224 185.527C59.9424 186.881 62.7329 187.136 64.0465 185.946C65.386 184.733 65.2228 182.033 65.0906 179.791C64.8264 175.349 63.8547 168.621 57.8255 170.034Z" fill="#FB9390"/>
<path d="M54.2269 178.809C54.5041 179.976 54.1336 181.103 53.4004 181.324C52.6671 181.546 51.8458 180.78 51.5686 179.614C51.2913 178.447 51.6618 177.32 52.3951 177.098C53.1309 176.874 53.9497 177.643 54.2269 178.809Z" fill="#F7A491"/>
<path d="M42.0964 337.282C40.0211 338.238 37.8006 337.647 36.9015 337.342L35.4609 342.084C35.4609 342.084 39.9926 343.432 42.3503 342.084L42.0964 337.282Z" fill="#FA7167"/>
<path d="M44.0703 283.071C44.0732 283.077 44.0732 283.077 44.0761 283.071H44.0703Z" fill="#F47458"/>
<path d="M65.1537 342.196H80.9509C81.5339 342.141 81.6764 341.646 81.4743 341.342C81.0571 340.714 79.215 340.256 77.1422 339.256C73.5096 339.652 65.8844 337.058 65.3118 336.186C64.9801 337.933 64.8273 342.12 65.1537 342.196Z" fill="#FA7167"/>
<path d="M96.8815 214.94C97.1872 214.513 98.2132 212.422 98.2132 212.422C98.2132 212.422 99.2755 208.839 99.0553 208.886C98.9257 208.914 98.4879 209.419 97.9697 210.505C97.6536 211.167 97.3064 212.328 96.9773 212.901C96.4021 213.906 95.7596 214.325 95.9176 213.937C96.0342 213.653 96.428 213.422 96.7752 212.82C97.6199 211.354 98.3661 208.956 98.0396 209.005C97.7546 209.047 96.9385 210.701 96.0342 211.987C95.6404 212.547 94.5211 213.25 93.8189 213.695C93.8267 213.377 93.9148 213.06 93.9614 212.909C94.0521 212.627 95.3061 210.956 94.8139 210.745C94.3242 210.534 91.3368 214.156 91.3368 214.156L90.1112 216.257L90.0024 216.338H89.9972C89.9972 216.338 75.0991 222.207 74.5991 222.048C73.4279 221.676 69.4223 210.013 69.4223 210.013L61.0871 211.523C60.9679 211.458 69.8498 228.883 71.5054 229.737C72.959 230.487 88.4452 222.379 91.3549 220.645C95.3605 219.095 96.9255 217.252 97.5758 216.309C97.9256 215.801 99.2677 213.599 99.2677 213.599C99.2677 213.599 99.5553 210.544 99.3377 210.518C98.6019 210.427 98.3998 213.307 98.3998 213.307C98.3998 213.307 97.4048 214.666 97.2338 214.843C96.8063 215.278 96.8815 214.94 96.8815 214.94Z" fill="#FB9390"/>
<path d="M55.7084 199.848C54.571 204.693 60.6391 215.497 60.6391 215.497C60.6391 215.497 69.2826 211.278 70.8035 209.458C70.8035 209.458 64.8416 199.569 64.4711 198.923C63.6731 197.528 60.8722 194.645 58.986 195.174C57.7838 195.512 55.7084 199.848 55.7084 199.848Z" fill="#E8605D"/>
<path d="M57.0805 187.899C57.7257 183.454 65.0633 174.396 62.2288 170.61C59.9358 167.548 55.9379 168.464 53.391 169.344C41.8404 173.338 42.5037 187.93 38.8582 190.211C32.2486 194.349 28.1808 196.924 27.704 206.245C27.1392 217.299 36.4823 222.946 47.7167 220.241C53.7563 218.788 55.3575 216.801 57.7801 211.068C58.8735 208.485 61.0758 200.423 60.4721 196.484C59.9358 192.958 56.5623 191.479 57.0805 187.899Z" fill="#0B0754"/>
<path d="M61.4723 179.752C61.4723 181.067 60.9955 182.134 60.41 182.134C59.8244 182.134 59.3477 181.067 59.3477 179.752C59.3477 178.437 59.8218 177.369 60.41 177.369C60.9981 177.369 61.4723 178.434 61.4723 179.752Z" fill="#FB9390"/>
<path d="M75.9532 280.472L76.4947 258.629C76.5879 252.455 75.3728 246.339 72.9347 240.717L68.828 231.245C67.1672 231.791 65.5996 232.258 63.8533 232.461C60.0549 232.901 56.3187 232.463 52.5411 232.015C52.5307 232.164 52.5126 232.294 52.4893 232.401C51.8027 235.616 47.9862 242.79 46.3772 252.591C44.5505 263.717 43.8691 280.358 44.0971 281.665C61.5551 282.462 65.7162 283.094 75.9532 280.472Z" fill="#4982F2"/>
<path d="M293.397 171.128L306.543 184.34C306.543 184.34 331.58 194.179 334.378 200.223C337.177 206.266 331.86 205.985 325.986 205.142C320.112 204.298 303.468 193.896 303.468 193.896L288.223 176.185L293.397 171.128Z" fill="#4951EC"/>
<path d="M331.88 197.572L328.628 196.414L322.335 199.366C322.335 199.366 319.083 201.58 317.51 207.063C315.938 212.544 317.51 245.331 320.132 250.602C322.754 255.872 331.88 197.572 331.88 197.572Z" fill="#BED1F9"/>
<path d="M352.527 329.054C352.527 329.054 354.839 330.552 355.03 331.239C355.219 331.929 356.916 339.378 356.282 340.24C355.647 341.105 353.323 340.686 354.227 341.316C354.908 341.79 359.303 342.154 362.114 341.391C362.935 341.17 362.56 334.205 362.679 333.145C362.855 331.603 363.915 328.107 363.272 327.195C362.959 326.75 361.155 325.969 359.531 325.333C357.823 324.664 355.929 322.774 355.929 322.774L352.527 329.054Z" fill="#FB9390"/>
<path d="M359.38 325.276C359.38 325.276 358.015 338.493 356.416 339.47C355.991 339.73 353.745 339.923 353.538 341.001C353.533 341.027 353.486 342.107 354.167 342.133L362.692 342.107C362.692 342.107 362.78 335.608 362.725 333.064C362.725 333.064 363.902 326.565 363.518 326.081C363.137 325.591 359.38 325.276 359.38 325.276Z" fill="#0B0754"/>
<path d="M385.883 329.054C385.883 329.054 388.194 330.552 388.386 331.239C388.575 331.929 390.272 339.378 389.637 340.24C389.002 341.105 386.678 340.686 387.583 341.316C388.264 341.79 392.658 342.154 395.469 341.391C396.288 341.17 395.915 334.205 396.034 333.145C396.21 331.603 397.27 328.107 396.628 327.195C396.314 326.75 394.511 325.969 392.886 325.333C391.179 324.664 389.285 322.774 389.285 322.774L385.883 329.054Z" fill="#FB9390"/>
<path d="M344.016 243.16C344.016 243.16 351.809 258.712 353.408 262.889L365.285 293.171L391.48 324.136C391.48 324.136 389.562 329.112 386.663 330.445C386.663 330.445 355.082 304.818 352.483 300.782C348.524 294.629 330.493 256.934 330.493 256.934L327.141 249.682L344.016 243.16Z" fill="#E8605D"/>
<path d="M325.182 242.996L325.306 256.257C325.306 256.257 319.668 299.577 320.762 302.149C323.428 308.427 352.721 329.7 352.721 329.7L356.706 322.813L335.657 299.199L343.63 276.218C345.861 270.88 350.605 260.564 350.485 254.775C350.382 249.815 340.596 238.312 340.596 238.312L325.182 242.996Z" fill="#FA7167"/>
<path d="M337.144 262.595C344.907 260.824 351.188 258.067 351.833 255.89C352.123 254.906 347.796 245.011 344.612 231.799C343.573 227.485 343.759 223.433 342.093 208.326C341.738 205.121 340.419 198.406 335.481 196.671C333.745 196.065 332.779 196.14 332.779 196.14C332.737 196.148 326.496 196.19 323.64 197.783C322.936 198.744 320.308 204.004 319.609 218.34C319.303 224.6 318.059 244.699 318.316 247.964C318.355 248.448 318.401 248.917 318.461 249.37C319.575 258.048 328.654 264.532 337.144 262.595Z" fill="#4951EC"/>
<path d="M323.422 207.587C323.427 207.589 323.435 207.587 323.445 207.587C326.609 207.235 334.568 196.757 334.568 196.757L334.55 196.729L329.64 188.912C329.64 188.912 322.406 190.235 323.823 192.448C325.238 194.659 326.031 199.97 326.031 199.97C326.008 200.03 325.977 200.103 325.933 200.192C325.435 201.275 323.813 204.488 323.422 207.587Z" fill="#FB9390"/>
<path d="M323.824 192.445C322.409 190.235 329.643 188.909 329.643 188.909L330.053 189.56C330.063 190.11 330.001 190.612 329.851 191.044C329.068 193.26 327.19 195.21 325.239 196.15C324.879 194.781 324.404 193.354 323.824 192.445Z" fill="#EF7F7F"/>
<path d="M325.558 176.552C325.713 176.403 331.198 185.47 329.882 189.204C328.566 192.937 324.133 195.914 321.5 194.583C318.588 193.109 314.188 182.71 316.842 178.299C319.495 173.888 325.558 176.552 325.558 176.552Z" fill="#FB9390"/>
<path d="M317.614 172.482C320.842 171.784 326.61 172.742 329.856 175.039C333.849 177.861 333.981 182.871 332.183 186.147C330.385 189.422 331.468 191.833 331.468 191.833C331.468 191.833 325.856 191.479 324.721 187.641C324.244 186.03 324.837 184.939 323.76 184.032C322.928 183.332 322.231 181.298 321.407 179.663C321.407 179.663 317.787 177.729 316.409 179.322C315.935 179.864 313.471 173.378 317.614 172.482Z" fill="#0B0754"/>
<path d="M323.193 184.735C323.685 185.92 324.636 186.647 325.322 186.36C326.007 186.074 326.165 184.881 325.675 183.696C325.183 182.512 324.232 181.785 323.545 182.072C322.858 182.358 322.7 183.551 323.193 184.735Z" fill="#FB9390"/>
<path d="M392.777 325.289C392.777 325.289 391.376 338.49 389.777 339.467C389.352 339.727 387.106 339.92 386.898 340.998C386.893 341.024 386.828 342.141 387.528 342.123L396.042 342.104C396.042 342.104 396.14 335.605 396.086 333.061C396.086 333.061 397.262 326.562 396.879 326.078C396.495 325.591 392.777 325.289 392.777 325.289Z" fill="#0B0754"/>
<path d="M204.5 264.287C197.733 250.06 195.875 228.831 203.249 211.99C215.683 183.566 249.894 171.966 247.376 139.752C246.741 131.639 243.15 125.111 237.859 120.913C223.935 109.863 201.531 115.711 185.54 123.429C175.326 128.36 165.84 135.352 157.085 144.408L152.637 87.5144C171.831 73.8261 195.059 66.6683 218.24 64.8378C265.743 61.0857 302.426 78.9921 306.16 126.743C309.564 170.295 280.279 189.589 260.634 211.36C249.728 223.444 247.264 232.752 248.109 243.537C248.544 249.112 250.625 255.994 253.97 260.382L204.5 264.287ZM238.608 342.089C192.434 345.734 187.086 283.394 233.732 279.712C279.677 276.083 284.605 338.457 238.608 342.089Z" fill="url(#paint0_linear_5168_4005)"/>
<path d="M286.358 174.003C286.272 173.609 286.588 173.919 286 170.847C285.829 169.959 285.28 169.024 284.87 168.527C284.65 168.256 284.14 167.798 283.824 167.605C283.295 167.287 282.883 167.806 282.987 168.097C283.093 168.389 283.637 169.399 283.743 169.691C283.849 169.982 283.896 170.701 283.655 170.938C283.414 171.178 279.59 166.769 279.352 166.384C279.149 166.056 278.696 164.621 278.696 164.621C278.696 164.621 278.362 163.577 277.955 163.843C277.688 164.017 277.395 164.876 278.162 166.569C278.833 168.048 279.758 169.227 279.655 169.316C279.38 169.542 277.719 167.545 277.719 167.545C277.719 167.545 277.139 166.431 276.748 166.035C276.501 165.295 276.051 164.374 275.579 164.736C275.491 164.803 275.804 166.379 275.804 166.379C275.804 166.379 276.385 167.42 276.631 167.936C277.066 168.842 278.059 169.941 278.398 170.529C278.68 171.019 278.406 170.907 278.385 170.964C278.367 171.008 277.939 170.459 277.287 169.654C276.957 169.248 276.507 168.863 276.193 168.334C275.903 167.845 275.413 167.228 275.108 166.863C274.247 165.832 273.789 166.532 274.444 167.621C274.693 168.035 274.968 168.485 275.25 168.938C276.341 170.704 277.686 172.084 277.553 172.25C277.385 172.466 275.074 169.805 275.074 169.805C275.074 169.805 273.444 168.714 274.413 170.321C275.538 172.183 276.753 173.375 276.81 173.425C277.193 173.76 278.217 175.341 279.719 176.302C281.222 177.263 283.658 178.713 283.658 178.713C283.938 179.051 284.65 180.155 285.637 181.715L289.28 177.312C287.998 175.971 286.417 174.276 286.358 174.003Z" fill="#FB9390"/>
<path d="M283.484 180.213L288.519 175.786L305.811 192.935C305.811 192.935 332.578 195.294 332.648 195.312L333.721 195.648C343.432 199.017 339.434 206.982 337.563 208.214C333.205 211.083 309.003 209.365 301.248 204.53C294.864 200.551 283.484 180.213 283.484 180.213Z" fill="#7C9AF2"/>
<path d="M103.289 204.803C103.481 205.516 103.592 205.753 103.838 206.23C105.421 209.318 109.09 213.724 109.09 213.724L111.93 206.863C111.93 206.863 111.466 204.709 110.666 201.629C107.922 202.4 105.31 202.842 103.289 204.803Z" fill="#FB9390"/>
<path d="M119.563 198.851C119.563 198.851 103.73 206.165 103.217 206.024C102.888 205.933 96.7212 194.867 96.6564 184.457C96.6253 179.65 101.281 173.867 106.474 175.01C109.088 175.585 109.049 176.367 112.917 182.394C116.783 188.425 119.563 198.851 119.563 198.851Z" fill="#4951EC"/>
<path d="M133.083 329.971C133.083 329.971 132.707 336.642 132.705 336.655C132.568 337.501 132.023 339.594 132.023 340.363C132.023 343.255 144.828 337.907 141.957 336.626C141.698 336.509 140.338 335.631 140.252 334.647C140.12 333.132 139.786 330.062 139.786 330.062L133.083 329.971Z" fill="#FB9390"/>
<path d="M141.924 336.6C141.924 336.6 138.919 337.485 137.38 337.707C135.841 337.928 133.809 336.066 132.721 336.569C131.521 337.123 131.571 342.107 131.571 342.107C131.571 342.107 147.692 343.526 152.223 342.058C154.019 341.474 148.07 338.66 141.924 336.6Z" fill="#0B0754"/>
<path d="M106.888 329.971C106.888 329.971 106.512 336.642 106.51 336.655C106.372 337.501 105.828 339.594 105.828 340.363C105.828 343.255 118.633 337.907 115.762 336.626C115.503 336.509 113.738 334.978 113.653 333.994C113.521 332.478 113.591 330.064 113.591 330.064L106.888 329.971Z" fill="#FB9390"/>
<path d="M115.731 336.6C115.731 336.6 112.725 337.485 111.186 337.707C109.647 337.928 107.616 336.066 106.528 336.569C105.328 337.123 105.281 342.107 105.281 342.107C105.281 342.107 121.475 343.761 126.03 342.058C127.797 341.394 121.876 338.66 115.731 336.6Z" fill="#0B0754"/>
<path d="M110.801 208.498L122.077 191.555C122.123 191.406 122.227 191.102 122.382 190.638C122.95 188.956 124.131 185.459 125.163 181.978L125.173 181.941C125.497 180.726 126.181 178.603 126.844 176.549C127.583 174.265 128.497 171.435 128.528 170.953C128.5 170.87 128.448 170.722 128.375 170.526C127.961 169.375 127.404 166.634 127.204 165.441C127.077 164.681 126.953 162.837 127.795 162.837C129.119 162.837 128.487 164.681 129.098 165.832C129.324 165.061 129.774 163.538 130.015 161.991L130.236 158.39C130.277 158.119 130.008 156.13 130.935 156.13L130.979 156.132C131.814 156.198 131.793 158.309 132.14 161.884C132.249 161.473 132.36 160.978 132.441 160.523C132.43 160.278 132.599 159.205 132.723 158.637C132.555 157.643 132.653 156.073 133.64 156.218C134.135 156.294 134.094 158.484 134.094 158.484C134.088 158.786 134.06 161.101 134.076 161.559C134.177 160.78 134.573 157.466 135.35 157.466C135.993 157.466 136.045 158.359 136.032 159.064C136.024 159.484 135.62 163.074 135.596 163.493C135.9 162.949 136.26 159.783 136.558 159.783C137.812 159.783 137.358 164.285 136.897 165.457C136.853 165.577 136.806 165.813 136.755 166.084C136.599 166.886 136.335 168.23 135.679 169.433C134.892 170.878 133.806 173.174 133.64 173.529C133.518 174.247 133.143 176.828 132.666 180.072C132.464 181.462 132.241 182.986 132.008 184.561L131.995 184.558C131.954 184.899 131.718 185.985 130.826 190.058C129.606 195.632 129.479 195.872 129.425 195.976C128.894 196.984 116.737 214.692 116.219 215.445L115.913 215.89L110.801 208.498Z" fill="#FB9390"/>
<path d="M131.775 168.982C131.775 168.982 130.86 166.472 129.23 166.467C129.23 166.467 130.14 166.115 130.922 166.777C131.702 167.441 131.775 168.982 131.775 168.982Z" fill="#EF7F7F"/>
<path d="M108.076 164.131L106.625 173.979C106.625 173.979 112.157 178.741 115.38 177.739C118.085 176.895 116.23 173.102 116.23 173.102C116.23 173.102 114.789 167.844 115.23 165.09C115.673 162.332 108.076 164.131 108.076 164.131Z" fill="#FB9390"/>
<path d="M109.118 167.108C110.504 167.811 113.246 168.769 115.378 169.001C115.173 167.623 115.057 166.165 115.23 165.09C115.435 163.819 113.925 163.517 112.243 163.561C110.041 163.764 108.077 164.134 108.077 164.134L107.797 166.027C108.217 166.496 108.657 166.873 109.118 167.108Z" fill="#EF7F7F"/>
<path d="M101.097 152.774C100.869 152.774 103.284 163.775 107.02 165.668C110.756 167.561 116.329 166.574 117.376 163.611C118.532 160.332 114.313 149.113 109.056 147.686C103.802 146.259 101.097 152.774 101.097 152.774Z" fill="#FB9390"/>
<path d="M105.421 142.666C102.436 144.512 101.065 147.251 100.604 148.373C99.2023 149.087 97.5078 150.628 96.6943 154.784C95.6942 159.892 99.2516 163.832 103.021 165.017C106.794 166.201 107.429 168.878 107.429 168.878L107.802 165.998C107.802 165.998 106.962 163.491 105.701 162.236C104.439 160.981 106.299 159.15 106.462 157.658C106.589 156.51 105.799 154.279 105.97 152.393C105.97 152.393 108.066 148.988 110.131 148.144C113.655 146.709 109.25 140.296 105.421 142.666Z" fill="#0B0754"/>
<path d="M107.009 159.572C107.497 160.843 107.297 162.103 106.564 162.389C105.828 162.676 104.838 161.876 104.348 160.606C103.861 159.335 104.061 158.075 104.794 157.788C105.53 157.505 106.522 158.301 107.009 159.572Z" fill="#FB9390"/>
<path d="M120.93 208.771L142.681 204.967C142.681 204.967 140.207 198.283 139.32 198.283C138.437 198.283 122.873 205.571 122.873 205.571L121.634 208.238L120.93 208.771Z" fill="#FB9390"/>
<path d="M109.787 224.766C109.787 224.766 107.616 236.017 108.502 244.55C109.386 253.08 109.455 283.386 109.455 283.386L106.082 331.874L114.088 332.062C114.088 332.062 123.581 283.597 123.405 284.839C123.229 286.083 126.59 250.713 126.59 250.713L115.27 223.699L109.787 224.766Z" fill="#0B0754"/>
<path d="M111.91 224.233C111.91 224.233 110.496 234.364 112.265 238.806C114.035 243.249 127.436 286.847 127.612 290.401C127.788 293.955 132.244 333.244 132.244 333.244L141.554 332.963L143.567 289.281L139.349 234.38L135.255 220.499L111.91 224.233Z" fill="#0B0754"/>
<path d="M106.625 173.976C106.625 173.976 108.921 175.591 111.061 175.406C113.203 175.218 116.23 173.099 116.23 173.099L115.81 171.568C115.81 171.568 110.271 170.703 110.131 170.797C109.991 170.891 106.625 173.976 106.625 173.976Z" fill="#FB9390"/>
<path d="M131.094 197.955C131.094 197.955 139.323 206.282 143.036 204.86C146.748 203.439 148.287 198.577 139.224 191.466C131.114 185.102 131.094 197.955 131.094 197.955Z" fill="#FB9390"/>
<path d="M136.669 208.237C135.446 201.106 126.587 178.911 125.88 174.823C125.535 172.833 120.757 172.792 116.205 173.049C111.399 173.323 106.621 173.976 106.621 173.976C106.621 173.976 102.364 174.726 100.493 176.609C98.6201 178.491 98.1226 183.694 100.815 193.573C102.939 201.371 105.574 205.654 106.878 211.333C107.142 213.239 107.367 215.119 107.668 217.314C108.147 225.808 107.663 237.028 107.663 237.028C107.663 237.028 130.831 242.181 139.498 234.361C139.498 234.364 137.92 215.544 136.669 208.237Z" fill="#7C9AF2"/>
<path d="M142.576 192.901C142.576 192.901 133.484 200.949 132.956 200.949C132.614 200.949 119.983 190.984 117.068 182.795C115.456 178.27 118.837 173.206 122.698 173.221C125.374 173.232 126.564 173.974 131.87 178.773C137.174 183.574 142.576 192.901 142.576 192.901Z" fill="#4951EC"/>
<path d="M87.1562 141.835H47.2319C40.0367 141.835 34.207 135.973 34.207 128.745V120.437C34.207 113.206 40.0393 107.347 47.2319 107.347H87.1562C94.3513 107.347 100.181 113.208 100.181 120.437V128.745C100.181 135.973 94.3513 141.835 87.1562 141.835Z" fill="#BED1F9"/>
<path d="M92.3516 128.813L108.602 136.133L97.7227 120.83L92.3516 128.813Z" fill="#BED1F9"/>
<path d="M56.1742 123.475C56.1742 124.879 54.8994 126.017 53.3293 126.017C51.7565 126.017 50.4844 124.879 50.4844 123.475C50.4844 122.072 51.7591 120.934 53.3293 120.934C54.902 120.931 56.1742 122.072 56.1742 123.475Z" fill="white"/>
<path d="M69.4163 123.475C69.4163 124.879 68.1416 126.017 66.5715 126.017C64.9987 126.017 63.7266 124.879 63.7266 123.475C63.7266 122.072 65.0013 120.934 66.5715 120.934C68.1416 120.931 69.4163 122.072 69.4163 123.475Z" fill="white"/>
<path d="M82.6585 123.475C82.6585 124.879 81.3838 126.017 79.8136 126.017C78.2409 126.017 76.9688 124.879 76.9688 123.475C76.9688 122.072 78.2435 120.934 79.8136 120.934C81.3838 120.931 82.6585 122.072 82.6585 123.475Z" fill="white"/>
<path d="M236.011 6.78554L233.332 1.04934L235.558 0L237.076 3.25216L240.784 0.99726L242.056 3.11156L236.011 6.78554Z" fill="#BED1F9"/>
<path d="M84.433 89.3186L78.4919 91.4459L77.668 89.1207L81.0336 87.9126L79.1578 83.986L81.3731 82.9185L84.433 89.3186Z" fill="#FA7167"/>
</g>
<defs>
<linearGradient id="paint0_linear_5168_4005" x1="229.534" y1="64.3555" x2="229.534" y2="342.243" gradientUnits="userSpaceOnUse">
<stop stop-color="#FF8178"/>
<stop offset="1" stop-color="#E16D64"/>
</linearGradient>
<clipPath id="clip0_5168_4005">
<rect width="445" height="345" fill="white"/>
</clipPath>
</defs>
</svg>
